# xmcd CD database file
#
# Track frame offsets:
#	150
#	15646
#	31460
#	45767
#	60128
#	74655
#	89685
#	105216
#	120161
#	135358
#	148855
#	162472
#	177585
#	190973
#	203987
#	218382
#	231682
#	244861
#	259404
#	272116
#
# Disc length: 3785 seconds
#
# Revision: 0
# Processed by: cddbd v1.5.2PL0 Copyright (c) Steve Scherf et al.
# Submitted via: CDex 1.70beta2
#
DISCID=210ec714
DTITLE=Bessie Smith - 20 Légendes du Blues CD 10
DYEAR=2008
DGENRE=Blues
TTITLE0=Down Hearted Blues
TTITLE1=Cemetery Blues
TTITLE2=Weeping Willow Blues
TTITLE3=St. Louis Blues
TTITLE4=Cold In Hand Blues
TTITLE5=Soft Pedal Blues
TTITLE6=Careless Love
TTITLE7=Back Water Blues
TTITLE8=Send Me To The Letric Chair
TTITLE9=Dyin' By The Hour
TTITLE10=Empty Bed Blues, Part One
TTITLE11=Empty Bed Blues, Part Two
TTITLE12=Nobody Knows You When You're Down And Out
TTITLE13=Squeeze Me
TTITLE14=Money Blues
TTITLE15=On Revival Day
TTITLE16=Foolish Man Blues
TTITLE17=Muddy Water
TTITLE18=Need A Little Sugar In My Bowl
TTITLE19=Take Me For A Buggy Ride
EXTD=YEAR: 2008
EXTT0=
EXTT1=
EXTT2=
EXTT3=
EXTT4=
EXTT5=
EXTT6=
EXTT7=
EXTT8=
EXTT9=
EXTT10=
EXTT11=
EXTT12=
EXTT13=
EXTT14=
EXTT15=
EXTT16=
EXTT17=
EXTT18=
EXTT19=
PLAYORDER=
